Coordinates
version=1
nRows=23
nColumns=28
inDegrees=yes

Units are S.I. units (second, meters, Newtons, ...)
Angles are in degrees.

endheader
time	pelvis_tilt	pelvis_list	pelvis_rotation	pelvis_tx	pelvis_ty	pelvis_tz	hip_flexion_r	hip_adduction_r	hip_rotation_r	knee_angle_r	ankle_angle_r	subtalar_angle_r	mtp_angle_r	hip_flexion_l	hip_adduction_l	hip_rotation_l	knee_angle_l	socket_flexion	socket_adduction	socket_rotation	socket_tx	socket_ty	socket_tz	foot_flex	lumbar_extension	lumbar_bending	lumbar_rotation
      0.95000000	      6.00879337	     -2.65870507	     -4.37421942	      0.43946901	      1.03850663	      0.31308924	     -3.08910877	      7.07879720	     -0.53076725	    -14.97882438	     11.67618821	     -8.11033513	      5.83490419	      2.94895067	     -7.31058062	     -6.15794297	    -60.15066015	     -9.21009062	      0.00000000	      0.00000000	      0.00000000	      0.00000000	      0.00000000	     -0.28107801	    -13.38428100	      1.43478435	      7.41362776
      0.95416667	      6.00020564	     -2.51010041	     -4.62676203	      0.44411689	      1.03928208	      0.31361162	     -3.52251921	      6.85126411	     -0.52094395	    -14.66601161	     11.62543620	     -7.80632662	      5.91023777	      3.45656591	     -7.14387610	     -6.18263429	    -59.58044882	     -9.14091377	      0.00000000	      0.00000000	      0.00000000	      0.00000000	      0.00000000	     -0.27431283	    -13.40642607	      1.21814940	      7.58630337
      0.95833333	      6.23844020	     -2.19885927	     -4.99595020	      0.44879965	      1.04036318	      0.31420695	     -4.10060192	      6.34880833	     -0.80335978	    -14.55429253	     11.65551929	     -6.69150575	      6.78011160	      3.58751320	     -6.76373934	     -6.35522275	    -58.74067384	     -8.96019614	      0.00000000	      0.00000000	      0.00000000	      0.00000000	      0.00000000	     -0.23765846	    -13.69122056	      0.74984152	      8.06135058
      0.96250000	      6.17370853	     -2.15290619	     -5.17327122	      0.45331274	      1.04098234	      0.31458141	     -4.47024399	      6.25031864	     -0.77733736	    -14.24479909	     11.63793996	     -6.54852139	      6.82397000	      4.18121890	     -6.71003331	     -6.27162455	    -58.15814180	     -8.90195004	      0.00000000	      0.00000000	      0.00000000	      0.00000000	      0.00000000	     -0.28580181	    -13.68162511	      0.68365553	      8.12024993
      0.96666667	      6.08130230	     -1.98794304	     -5.38712285	      0.45812160	      1.04155700	      0.31504524	     -4.87621477	      6.02014418	     -0.70936035	    -13.79892540	     11.48210805	     -6.27799513	      6.88436785	      4.72658561	     -6.52400542	     -6.23371032	    -57.42657826	     -8.79748082	      0.00000000	      0.00000000	      0.00000000	      0.00000000	      0.00000000	     -0.24145983	    -13.57469882	      0.45736028	      8.24323554
      0.97083333	      6.02932314	     -1.84547558	     -5.62036207	      0.46275618	      1.04212550	      0.31554038	     -5.26336531	      5.80121445	     -0.66959331	    -13.46270530	     11.36936731	     -6.01503874	      6.98099376	      5.22827986	     -6.36901084	     -6.23342983	    -56.65488696	     -8.66560069	      0.00000000	      0.00000000	      0.00000000	      0.00000000	      0.00000000	     -0.22926529	    -13.54325631	      0.25041191	      8.40397241
      0.97500000	      5.98432011	     -1.81306860	     -5.82610972	      0.46727533	      1.04264092	      0.31593982	     -5.62267948	      5.70526254	     -0.64927533	    -13.21715562	     11.33576516	     -5.82052608	      7.04848698	      5.73145816	     -6.33078231	     -6.18084322	    -55.91147899	     -8.59346037	      0.00000000	      0.00000000	      0.00000000	      0.00000000	      0.00000000	     -0.27061525	    -13.54121579	      0.18911174	      8.51979718
      0.97916667	      5.98716845	     -1.83695163	     -6.05861397	      0.47140135	      1.04287712	      0.31629009	     -5.91171474	      5.64958751	     -0.70425960	    -13.17524613	     11.33504331	     -5.78220113	      7.05988571	      6.28674164	     -6.36412292	     -6.15198641	    -55.48179590	     -8.71806256	      0.00000000	      0.00000000	      0.00000000	      0.00000000	      0.00000000	     -0.25067759	    -13.69045720	      0.18141447	      8.54482161
      0.98333333	      5.95769887	     -1.48417991	     -6.38764106	      0.47652904	      1.04369070	      0.31701791	     -6.41235109	      5.17574958	     -0.60253066	    -12.64468634	     11.14642629	     -5.17143454	      7.42800606	      6.50798833	     -5.96578338	     -6.26266666	    -54.03069350	     -8.24436198	      0.00000000	      0.00000000	      0.00000000	      0.00000000	      0.00000000	     -0.19232869	    -13.55483694	     -0.32356672	      9.01383253
      0.98750000	      5.89684143	     -1.53916367	     -6.54151822	      0.48080917	      1.04400098	      0.31728621	     -6.73825604	      5.18225327	     -0.56158985	    -12.41201958	     11.13376237	     -4.98696195	      7.48973458	      7.04560929	     -6.02580006	     -6.14095608	    -53.28677183	     -8.19003258	      0.00000000	      0.00000000	      0.00000000	      0.00000000	      0.00000000	     -0.26642355	    -13.59102421	     -0.26961736	      9.08317492
      0.99166667	      5.77810418	     -1.41173272	     -6.71981970	      0.48562683	      1.04424672	      0.31767137	     -7.13655643	      4.98986689	     -0.47360843	    -11.90013846	     10.96369635	     -4.64754729	      7.58998135	      7.53905859	     -5.89031044	     -6.08160583	    -52.33319114	     -8.03484987	      0.00000000	      0.00000000	      0.00000000	      0.00000000	      0.00000000	     -0.16580920	    -13.45675420	     -0.43599449	      9.22013269
      0.99583333	      5.73315159	     -1.49087006	     -6.90889773	      0.48987469	      1.04445099	      0.31801490	     -7.41505420	      5.00877468	     -0.50028711	    -11.81306446	     10.95958499	     -4.55454916	      7.64013109	      8.02089732	     -5.98150511	     -5.98209715	    -51.52717692	     -7.99331415	      0.00000000	      0.00000000	      0.00000000	      0.00000000	      0.00000000	     -0.26018618	    -13.52046232	     -0.37557422	      9.28733815
      1.00000000	      5.76108684	     -1.25864499	     -7.17721097	      0.49462683	      1.04486909	      0.31857113	     -7.86029236	      4.64739808	     -0.57467080	    -11.46480176	     10.40723832	     -4.15241850	      9.86923265	      8.24320011	     -5.71821870	     -6.01407855	    -50.26510859	     -7.69796784	      0.00000000	      0.00000000	      0.00000000	      0.00000000	      0.00000000	     -0.17147985	    -13.54105130	     -0.73929365	      9.51972014
      1.00416667	      5.64750790	     -1.27901543	     -7.31824964	      0.49911785	      1.04492309	      0.31889348	     -8.18047632	      4.62440588	     -0.50884549	    -11.13775911	     10.34815472	     -4.00785369	      9.86887899	      8.74383392	     -5.74715441	     -5.87368905	    -49.32674153	     -7.59979593	      0.00000000	      0.00000000	      0.00000000	      0.00000000	      0.00000000	     -0.17419990	    -13.46250143	     -0.74560021	      9.62683250
      1.00833333	      5.52713479	     -1.28710222	     -7.48575099	      0.50354034	      1.04495174	      0.31918750	     -8.47455770	      4.57936392	     -0.44189440	    -10.83843228	     10.28727471	     -3.87479237	      9.86979642	      9.23391958	     -5.76756758	     -5.77014048	    -48.33014489	     -7.44949239	      0.00000000	      0.00000000	      0.00000000	      0.00000000	      0.00000000	     -0.15518353	    -13.41513729	     -0.73658840	      9.72525338
      1.01250000	      5.41995788	     -1.26915999	     -7.66429964	      0.50808313	      1.04496812	      0.31958711	     -8.77606606	      4.51025559	     -0.35410467	    -10.55776183	     10.19130321	     -3.76103219	      9.86815024	      9.65588335	     -5.76105484	     -5.67983993	    -47.23922767	     -7.29059155	      0.00000000	      0.00000000	      0.00000000	      0.00000000	      0.00000000	     -0.16514284	    -13.33530971	     -0.80340723	      9.84264905
      1.01666667	      5.30955687	     -1.27602042	     -7.84330416	      0.51254807	      1.04493010	      0.31997288	     -9.06798314	      4.46719217	     -0.25628730	    -10.29091836	     10.12008991	     -3.68003808	      9.87640122	     10.07895829	     -5.78686587	     -5.58683931	    -46.13130056	     -7.11651048	      0.00000000	      0.00000000	      0.00000000	      0.00000000	      0.00000000	     -0.17116438	    -13.27514867	     -0.83404452	      9.96443980
      1.02083333	      5.19774820	     -1.34127652	     -7.98805914	      0.51698716	      1.04480578	      0.32031125	     -9.37210305	      4.49561651	     -0.16601198	    -10.01202017	     10.08134340	     -3.57683701	      9.88878518	     10.51191300	     -5.87447338	     -5.43979885	    -45.07529752	     -6.98585371	      0.00000000	      0.00000000	      0.00000000	      0.00000000	      0.00000000	     -0.14490063	    -13.21375605	     -0.80078976	     10.05920739
      1.02500000	      5.06382317	     -1.40856549	     -8.12071438	      0.52137506	      1.04461800	      0.32056588	     -9.64574122	      4.52381958	     -0.07945604	     -9.74144132	     10.04292632	     -3.48639219	      9.89677931	     10.96747853	     -5.96355807	     -5.29138894	    -43.99105818	     -6.82796103	      0.00000000	      0.00000000	      0.00000000	      0.00000000	      0.00000000	     -0.12840783	    -13.16759722	     -0.72741801	     10.14489522
      1.02916667	      4.95598242	     -1.54516273	     -8.24716599	      0.52571605	      1.04435309	      0.32080390	     -9.90782922	      4.61702913	     -0.05548527	     -9.56801597	     10.05124854	     -3.41873002	      9.91082458	     11.40603688	     -6.13350238	     -5.14607451	    -42.99157053	     -6.76320395	      0.00000000	      0.00000000	      0.00000000	      0.00000000	      0.00000000	     -0.20401827	    -13.16265569	     -0.58557729	     10.20903603
      1.03333333	      4.83589750	     -1.68048931	     -8.35471044	      0.53009797	      1.04404400	      0.32105358	    -10.17882104	      4.72426678	     -0.02017389	     -9.36162172	     10.05826592	     -3.33565383	      9.92342575	     11.85073540	     -6.30480113	     -4.99593090	    -41.97381712	     -6.67504187	      0.00000000	      0.00000000	      0.00000000	      0.00000000	      0.00000000	     -0.24901056	    -13.12401108	     -0.43874872	     10.27283965
      1.03750000	      4.68827749	     -1.80347778	     -8.45366552	      0.53452851	      1.04368443	      0.32124434	    -10.44696811	      4.81848177	      0.05523011	     -9.09934939	     10.04091122	     -3.23899191	      9.92928210	     12.29382151	     -6.45465240	     -4.81256594	    -40.87749858	     -6.54223332	      0.00000000	      0.00000000	      0.00000000	      0.00000000	      0.00000000	     -0.25060565	    -13.05375271	     -0.31781581	     10.33789914
      1.04166667	      4.53432810	     -1.91320157	     -8.54920878	      0.53898775	      1.04326806	      0.32150676	    -10.71477477	      4.90590315	      0.12940042	     -8.82722007	     10.00998009	     -3.16204459	      9.92816612	     12.72723612	     -6.60103914	     -4.64267410	    -39.75451685	     -6.40234718	      0.00000000	      0.00000000	      0.00000000	      0.00000000	      0.00000000	     -0.25493891	    -12.96649308	     -0.20864902	     10.39751294
